<svg version="1.1" id="Layer_1" xmlns="http://www.w3.org/2000/svg" xmlns:xlink="http://www.w3.org/1999/xlink" x="0px" y="0px"
	 width="100%" viewBox="0 0 365 1200" enable-background="new 0 0 365 1200" xml:space="preserve">
<path fill="#47ABE1" opacity="1.000000" stroke="none" 
	d="
M1.389927,645.313660 
	C1.000000,614.979126 1.000000,584.958191 1.000000,554.468628 
	C3.666384,551.631104 6.957282,552.189392 10.067441,552.185059 
	C41.388256,552.141357 72.709152,552.159607 104.030022,552.159485 
	C187.830017,552.159180 271.630005,552.152161 355.429993,552.184753 
	C358.718506,552.186035 362.124481,551.605164 365.609406,553.685669 
	C366.000000,583.687561 366.000000,613.375122 366.000000,643.531372 
	C364.555145,645.836426 362.590302,646.555603 360.328735,646.703796 
	C358.331635,646.834656 356.334076,646.834656 354.335876,646.834717 
	C239.912674,646.838135 125.489464,646.841431 11.066265,646.814575 
	C7.941223,646.813843 4.705873,647.331543 1.389927,645.313660 
z"/>
<path fill="#72BFE8" opacity="1.000000" stroke="none" 
	d="
M1.389927,781.313660 
	C1.000000,765.979126 1.000000,750.958191 1.000000,735.468628 
	C3.665532,732.632568 6.954762,733.193726 10.062769,733.189697 
	C42.863144,733.147156 75.663589,733.164551 108.464012,733.164307 
	C190.048828,733.163757 271.633667,733.152527 353.218445,733.200012 
	C357.192139,733.202271 361.196045,732.525452 365.576416,733.733521 
	C366.000000,749.020874 366.000000,764.041809 366.000000,779.531372 
	C364.555145,781.836426 362.590302,782.555542 360.328735,782.703735 
	C358.331635,782.834595 356.334076,782.834656 354.335876,782.834717 
	C239.912674,782.838135 125.489464,782.841431 11.066265,782.814575 
	C7.941223,782.813843 4.705873,783.331543 1.389927,781.313660 
z"/>
<path fill="#81C5EB" opacity="1.000000" stroke="none" 
	d="
M1.000000,781.468628 
	C119.767860,781.000000 238.535721,781.000305 357.303589,780.997742 
	C359.957184,780.997681 362.644409,781.263916 365.585602,780.058350 
	C366.000000,795.020874 366.000000,810.041809 366.000000,825.531372 
	C364.555145,827.836426 362.590302,828.555603 360.328735,828.703796 
	C358.331635,828.834656 356.334076,828.834656 354.335876,828.834717 
	C239.912674,828.838135 125.489464,828.841431 11.066265,828.814575 
	C7.941223,828.813843 4.705873,829.331543 1.389927,827.313660 
	C1.000000,811.979126 1.000000,796.958191 1.000000,781.468628 
z"/>
<path fill="#56B1E4" opacity="1.000000" stroke="none" 
	d="
M1.000000,645.468628 
	C119.767830,645.000000 238.535660,645.000305 357.303497,644.997742 
	C359.957153,644.997681 362.644348,645.263733 365.585571,644.058289 
	C366.000000,659.020874 366.000000,674.041809 366.000000,689.531372 
	C364.343079,691.885132 362.147644,692.513733 359.752625,692.691223 
	C357.424622,692.863708 355.092957,692.834839 352.762085,692.834900 
	C239.029175,692.837585 125.296272,692.842041 11.563375,692.811707 
	C8.276916,692.810791 4.872826,693.392639 1.390020,691.313782 
	C1.000000,675.979126 1.000000,660.958191 1.000000,645.468628 
z"/>
<path fill="#C8E6F6" opacity="1.000000" stroke="none" 
	d="
M365.609406,1004.685669 
	C366.000000,1019.687561 366.000000,1034.375122 366.000000,1049.531372 
	C363.333557,1052.369019 360.042633,1051.810181 356.932495,1051.814575 
	C325.611603,1051.858887 294.290588,1051.840332 262.969635,1051.840454 
	C179.169418,1051.840698 95.369209,1051.848022 11.569002,1051.814941 
	C8.280827,1051.813721 4.874985,1052.394897 1.390504,1050.314209 
	C1.000000,1035.312500 1.000000,1020.624878 1.000000,1005.468628 
	C3.666384,1002.631104 6.957282,1003.189392 10.067441,1003.185059 
	C41.388256,1003.141357 72.709152,1003.159607 104.030022,1003.159485 
	C187.830017,1003.159180 271.630005,1003.152161 355.429993,1003.184753 
	C358.718506,1003.186035 362.124481,1002.605164 365.609406,1004.685669 
z"/>
<path fill="#8FCCED" opacity="1.000000" stroke="none" 
	d="
M1.000000,827.468628 
	C119.767830,827.000000 238.535660,827.000427 357.303497,826.997864 
	C359.957123,826.997803 362.644379,827.263855 365.585571,826.058289 
	C366.000000,840.687561 366.000000,855.375122 366.000000,870.531372 
	C364.146088,872.954285 361.712982,873.433594 359.187256,873.660522 
	C356.529602,873.899231 353.863678,873.834106 351.200531,873.834167 
	C238.153931,873.837402 125.107330,873.842529 12.060740,873.808777 
	C8.612234,873.807739 5.039699,874.450317 1.389876,872.313599 
	C1.000000,857.312439 1.000000,842.624878 1.000000,827.468628 
z"/>
<path fill="#ACD9F2" opacity="1.000000" stroke="none" 
	d="
M1.389876,961.313599 
	C1.000000,946.312439 1.000000,931.624878 1.000000,916.468628 
	C3.665532,913.632568 6.954762,914.193726 10.062769,914.189636 
	C42.863144,914.147095 75.663589,914.164612 108.464012,914.164368 
	C190.048828,914.163818 271.633667,914.152527 353.218445,914.200012 
	C357.192139,914.202271 361.196045,913.525452 365.576416,914.733521 
	C366.000000,929.687561 366.000000,944.375122 366.000000,959.531372 
	C364.146088,961.954285 361.712982,962.433594 359.187256,962.660522 
	C356.529602,962.899231 353.863678,962.834106 351.200531,962.834167 
	C238.153931,962.837402 125.107330,962.842651 12.060740,962.808899 
	C8.612234,962.807861 5.039699,963.450317 1.389876,961.313599 
z"/>
<path fill="#BADFF4" opacity="1.000000" stroke="none" 
	d="
M1.367419,246.291962 
	C1.000000,231.312439 1.000000,216.624878 1.000000,201.468658 
	C3.667986,198.633560 6.958453,199.199371 10.067043,199.195129 
	C41.878365,199.151764 73.689758,199.169724 105.501129,199.169525 
	C182.281448,199.169022 259.061768,199.169312 335.842102,199.169403 
	C339.173096,199.169418 342.504364,199.189194 346.256989,199.035187 
	C347.852325,199.043640 349.043854,199.069244 350.053986,199.737457 
	C351.535095,200.717224 352.675720,201.089233 353.352905,198.835663 
	C353.988800,196.719421 355.705475,196.031723 357.711151,196.565735 
	C360.469055,197.299988 363.032043,198.514893 364.845581,200.852402 
	C365.318481,201.461884 365.074493,202.283478 364.419891,202.546463 
	C361.986877,203.523987 361.723175,206.618958 358.932953,207.359055 
	C361.236145,208.744171 363.636078,208.250488 365.740051,209.764893 
	C366.000000,221.687561 366.000000,233.375122 366.000000,245.531342 
	C359.935486,249.159302 355.840363,248.147446 351.746826,242.133499 
	C350.127686,247.212021 346.116730,247.742859 341.834259,247.768524 
	C335.167755,247.808487 328.501251,247.787170 321.834778,247.787338 
	C228.170120,247.789597 134.505447,247.794525 40.840790,247.767593 
	C37.374001,247.766586 33.815678,248.282104 30.188044,246.390411 
	C28.342360,244.115463 29.114971,242.075943 29.777639,240.017120 
	C29.990685,239.355209 29.804373,238.684906 29.227501,238.251663 
	C28.624884,237.799072 27.982864,237.889664 27.445248,238.404282 
	C26.922756,238.904388 26.767509,239.563660 27.068192,240.201569 
	C27.834433,241.827194 29.001804,243.326782 28.307743,245.666534 
	C27.283434,246.936447 26.170101,247.443939 25.012638,247.452927 
	C17.242107,247.513306 9.416432,248.895508 1.367419,246.291962 
z"/>
<path fill="#62B7E6" opacity="1.000000" stroke="none" 
	d="
M1.390479,513.314209 
	C1.000000,498.312439 1.000000,483.624878 1.000000,468.468658 
	C3.020271,466.100220 5.573497,466.202362 8.058290,466.200867 
	C62.934418,466.167999 117.810555,466.157410 172.686691,466.201752 
	C175.185089,466.203796 177.679169,466.324036 180.456329,467.428406 
	C182.545990,468.405548 183.099075,469.989594 183.623627,471.581146 
	C184.935486,475.561401 187.682800,477.421875 191.865967,477.504822 
	C196.137665,477.589508 199.284149,476.024994 201.046204,472.013550 
	C201.644226,470.652130 202.063004,469.176910 203.694748,467.966858 
	C207.348434,466.233032 210.850952,466.194489 214.343903,466.192627 
	C262.214539,466.167145 310.085144,466.171600 357.955780,466.195892 
	C360.428955,466.197144 362.972382,465.962036 365.614380,467.690430 
	C366.000000,482.687561 366.000000,497.375122 366.000000,512.531372 
	C363.333649,515.369019 360.042694,514.810669 356.932556,514.815002 
	C325.944824,514.858704 294.957031,514.840332 263.969238,514.840454 
	C179.835754,514.840759 95.702271,514.847900 11.568794,514.815247 
	C8.280622,514.813965 4.874849,515.395020 1.390479,513.314209 
z"/>
<path fill="#ACD9F2" opacity="1.000000" stroke="none" 
	d="
M29.599930,243.633423 
	C30.137602,245.074738 30.780378,245.930054 32.196686,245.955032 
	C33.694168,245.981445 35.192066,245.995865 36.689781,245.995895 
	C138.383713,245.997726 240.077637,245.997574 341.771576,245.997131 
	C342.936615,245.997131 344.105652,246.051575 345.265930,245.975479 
	C347.970764,245.798080 350.345703,245.414658 349.133606,241.586853 
	C348.645203,240.044510 349.316864,238.436295 351.182709,238.230881 
	C353.098389,238.019989 354.894623,239.390869 354.535492,241.040710 
	C353.364990,246.418030 356.987579,245.823441 360.101532,245.982224 
	C361.761627,246.066895 363.429565,245.998016 365.546997,245.999207 
	C366.000000,260.354218 366.000000,274.708466 366.000000,289.531342 
	C363.329834,292.365112 360.038452,291.796661 356.929657,291.799652 
	C315.615784,291.839386 274.301910,291.824738 232.988007,291.825073 
	C164.020462,291.825684 95.052925,291.821472 26.085384,291.835968 
	C22.595621,291.836700 19.083603,291.597595 15.219564,292.573181 
	C13.382149,293.519196 11.856373,293.715454 10.614825,292.615204 
	C7.865919,290.179047 4.381998,288.880402 1.285641,286.281891 
	C1.000000,272.979095 1.000000,259.958221 1.000000,246.468658 
	C8.432199,245.999161 15.864748,246.035934 23.296310,245.966736 
	C24.840994,245.952332 26.671692,246.643570 27.898605,244.424820 
	C28.356823,243.689117 28.782703,243.513855 29.599930,243.633423 
z"/>
<path fill="#BADFF4" opacity="1.000000" stroke="none" 
	d="
M1.000000,961.468628 
	C117.093040,961.000000 233.186081,961.001221 349.279114,960.996094 
	C354.585968,960.995850 359.917206,961.326538 365.571472,960.001953 
	C366.000000,974.687561 366.000000,989.375122 366.000000,1004.531372 
	C244.645767,1005.000000 123.291542,1005.000000 1.468657,1005.000000 
	C1.000000,990.645752 1.000000,976.291565 1.000000,961.468628 
z"/>
<path fill="#9DD2EF" opacity="1.000000" stroke="none" 
	d="
M366.000000,914.531372 
	C363.277435,915.860352 360.493408,916.026672 357.643127,916.026001 
	C239.074524,915.995728 120.505920,916.000000 1.468657,916.000000 
	C1.000000,901.645752 1.000000,887.291565 1.000000,872.468628 
	C117.093071,872.000000 233.186142,872.001221 349.279205,871.996094 
	C354.586029,871.995850 359.917236,872.326416 365.571472,871.001953 
	C366.000000,885.354248 366.000000,899.708435 366.000000,914.531372 
z"/>
<path fill="#9DD2EF" opacity="1.000000" stroke="none" 
	d="
M12.843842,293.333069 
	C13.175632,290.980469 14.338796,290.050629 16.297503,290.019073 
	C17.629641,289.997620 18.962223,289.998260 20.294607,289.998260 
	C135.217300,289.997803 250.139984,289.998230 365.531342,289.999268 
	C366.000000,304.687561 366.000000,319.375122 366.000000,334.531342 
	C363.334595,337.355865 360.051971,336.782288 356.951874,336.786346 
	C324.387512,336.829132 291.823090,336.811462 259.258667,336.811279 
	C256.267975,336.811249 253.277283,336.800568 249.838150,336.990540 
	C245.764618,336.965240 242.140350,336.355286 238.067139,337.027191 
	C213.493591,336.610535 189.373016,336.864899 165.253342,336.842651 
	C113.851433,336.795258 62.449436,336.838501 11.047505,336.804779 
	C7.926680,336.802734 4.694725,337.327301 1.386434,335.310455 
	C1.000000,331.969391 1.000000,328.938812 1.000000,325.454102 
	C1.740617,323.584290 3.065233,323.009155 4.442378,322.354736 
	C14.407935,317.619049 18.138756,307.612335 13.798182,297.427948 
	C13.280130,296.212433 12.593713,295.059479 12.843842,293.333069 
z"/>
<path fill="#7FC4EA" opacity="1.000000" stroke="none" 
	d="
M365.680511,385.748169 
	C366.000000,398.354218 366.000000,410.708466 366.000000,423.531342 
	C363.333649,426.369049 360.042725,425.810760 356.932556,425.815063 
	C325.611633,425.858612 294.290649,425.840393 262.969666,425.840515 
	C179.169373,425.840851 95.369095,425.847870 11.568816,425.815277 
	C8.280568,425.814026 4.874762,426.395111 1.390435,424.314148 
	C1.000000,409.645782 1.000000,395.291534 1.000000,380.468658 
	C3.668368,377.630463 6.960792,378.193085 10.071444,378.189819 
	C48.734371,378.149139 87.397346,378.164703 126.060310,378.164429 
	C196.053619,378.163940 266.046906,378.162079 336.040222,378.171295 
	C338.870331,378.171661 341.707367,378.027161 344.975037,378.477478 
	C345.904694,378.628448 346.492340,378.568512 346.844543,378.855255 
	C352.241333,383.249115 358.245667,385.910797 365.680511,385.748169 
z"/>
<path fill="#72BFE8" opacity="1.000000" stroke="none" 
	d="
M1.000000,424.468658 
	C122.354225,423.999817 243.708450,423.999634 365.531342,423.999725 
	C366.000000,438.354218 366.000000,452.708466 366.000000,467.531342 
	C317.075165,467.999573 268.150360,467.999268 219.225525,467.998688 
	C214.087128,467.998627 208.931030,467.725616 203.448761,469.006531 
	C202.295761,468.516022 201.995621,467.753540 201.691727,466.971954 
	C199.211548,460.593231 197.441208,459.280151 191.639954,459.479370 
	C186.284790,459.663269 185.150436,460.745117 182.956985,467.741760 
	C182.858505,468.055908 182.667114,468.335480 182.184387,468.828735 
	C177.687622,467.783997 173.365662,467.994324 169.056229,467.994781 
	C113.349922,468.000977 57.643620,467.999115 1.468657,467.999634 
	C1.000000,453.645782 1.000000,439.291534 1.000000,424.468658 
z"/>
<path fill="#62B7E6" opacity="1.000000" stroke="none" 
	d="
M1.000000,691.468628 
	C119.429512,691.000000 237.859024,690.994934 356.288544,691.028809 
	C359.305084,691.029663 362.250946,690.817688 365.577423,690.012085 
	C366.000000,695.354919 366.000000,700.709900 366.000000,706.532410 
	C365.154968,707.887634 364.049866,708.144653 362.898132,708.398438 
	C353.532928,710.462708 351.170807,715.276672 355.285034,724.579956 
	C356.551300,725.749573 357.658966,726.509216 359.438354,726.704346 
	C361.680237,727.311401 363.750916,727.282227 365.713593,728.756836 
	C366.000000,730.388916 366.000000,731.777771 366.000000,733.583374 
	C363.117798,734.953552 360.152100,735.021667 357.143311,735.020996 
	C238.741318,734.996277 120.339310,735.000000 1.468657,735.000000 
	C1.000000,720.645752 1.000000,706.291565 1.000000,691.468628 
z"/>
<path fill="#8DCBED" opacity="1.000000" stroke="none" 
	d="
M347.162048,379.670929 
	C231.976089,380.002014 116.956703,380.001007 1.468657,380.000000 
	C1.000000,365.312439 1.000000,350.624878 1.000000,335.468658 
	C78.099358,334.999573 155.198715,334.994232 232.298065,335.024567 
	C234.418152,335.025391 236.636765,334.478760 238.944366,336.003601 
	C243.430023,340.787750 243.430023,340.787750 247.547348,336.544006 
	C249.454910,334.241455 251.786804,335.034271 253.843933,335.031769 
	C290.916809,334.986481 327.989746,334.998901 365.531342,334.999481 
	C366.000000,339.689240 366.000000,344.378510 366.000000,349.533875 
	C363.898987,352.050720 361.525208,350.457916 358.899567,350.550598 
	C348.470947,353.477905 343.388092,362.794342 345.968781,373.585632 
	C346.427063,375.502075 347.478394,377.279053 347.162048,379.670929 
z"/>
<path fill="#D6ECF8" opacity="1.000000" stroke="none" 
	d="
M1.000000,1050.468628 
	C122.354225,1050.000000 243.708450,1050.000000 365.531342,1050.000000 
	C366.000000,1063.687622 366.000000,1077.375122 366.000000,1091.531372 
	C364.555145,1093.836426 362.590240,1094.555420 360.328735,1094.703857 
	C358.331635,1094.834839 356.334076,1094.835327 354.335846,1094.835327 
	C239.912613,1094.838867 125.489395,1094.842163 11.066172,1094.815430 
	C7.941050,1094.814697 4.705723,1095.331665 1.389911,1093.313721 
	C1.000000,1078.979126 1.000000,1064.958130 1.000000,1050.468628 
z"/>
<path fill="#E3F2FA" opacity="1.000000" stroke="none" 
	d="
M1.000000,1093.468628 
	C119.767792,1093.000000 238.535583,1093.000244 357.303375,1092.997803 
	C359.957123,1092.997681 362.644196,1093.262695 365.585632,1092.058350 
	C366.000000,1106.354248 366.000000,1120.708496 366.000000,1135.531372 
	C363.333557,1138.369019 360.042633,1137.810181 356.932495,1137.814575 
	C325.611603,1137.858887 294.290588,1137.840332 262.969635,1137.840454 
	C179.169418,1137.840698 95.369209,1137.848022 11.569002,1137.814941 
	C8.280827,1137.813721 4.874985,1138.394897 1.390504,1136.314209 
	C1.000000,1121.979126 1.000000,1107.958130 1.000000,1093.468628 
z"/>
<path fill="#F1F8FD" opacity="1.000000" stroke="none" 
	d="
M1.000000,1136.468628 
	C122.354225,1136.000000 243.708450,1136.000000 365.531342,1136.000000 
	C366.000000,1148.020874 366.000000,1160.041870 366.000000,1172.531372 
	C363.977295,1174.904053 361.419983,1174.804565 358.930573,1174.806396 
	C307.291382,1174.845581 255.652206,1174.838745 204.013031,1174.815552 
	C202.180801,1174.814697 200.344269,1174.795166 198.126923,1174.041504 
	C196.029572,1172.783325 196.656952,1171.086426 196.499115,1169.163330 
	C194.452286,1166.247192 191.707840,1167.854370 189.307724,1167.541138 
	C187.388306,1167.290649 185.410919,1167.499023 183.044708,1167.449219 
	C180.607590,1165.712158 178.684723,1163.903687 177.103897,1161.775757 
	C176.155029,1160.498535 175.790710,1159.090332 176.820389,1157.660767 
	C177.672607,1156.477661 179.016327,1155.741577 180.259735,1156.375488 
	C182.495224,1157.514893 184.446579,1155.884644 186.879822,1156.288330 
	C189.130035,1157.588501 189.195251,1159.271851 188.375320,1161.581543 
	C189.181839,1159.872925 189.153122,1158.619507 188.146698,1157.153564 
	C184.875061,1155.027100 181.577499,1156.750366 178.402115,1156.452881 
	C176.034088,1156.231079 175.371368,1159.148193 176.823700,1161.423828 
	C178.265808,1163.683228 180.374054,1165.360718 182.658340,1167.336670 
	C187.208954,1167.603271 191.409821,1167.351440 195.959473,1167.890747 
	C196.089218,1171.782104 197.897095,1175.239136 197.099197,1179.334229 
	C196.439255,1180.956665 195.491394,1181.482178 194.210876,1181.510498 
	C192.045120,1181.558472 190.849091,1182.816650 190.406662,1184.798340 
	C189.305862,1189.728882 185.469254,1189.344727 181.755936,1189.451172 
	C177.991837,1189.558960 175.716110,1188.199951 175.430588,1184.162354 
	C175.307602,1182.423096 174.016235,1181.559692 172.350540,1181.463379 
	C169.030533,1181.271484 168.179337,1179.307373 168.498703,1176.384277 
	C168.570526,1175.726929 168.497574,1175.054688 168.510727,1174.389648 
	C168.657745,1166.956055 167.190384,1167.500977 175.360229,1167.539673 
	C176.025421,1167.495361 175.324326,1166.380859 175.404480,1167.042725 
	C175.407196,1167.065186 175.361313,1167.083374 175.266754,1167.096802 
	C168.481644,1168.065308 168.560242,1168.066406 168.445099,1175.291260 
	C168.408600,1177.580688 169.166122,1179.916016 167.853119,1182.475098 
	C165.177917,1183.993652 162.649796,1183.817139 160.169373,1183.818115 
	C109.796783,1183.839600 59.424194,1183.840942 9.051619,1183.815674 
	C6.577423,1183.814453 4.034477,1184.041748 1.388921,1182.312744 
	C1.000000,1166.979126 1.000000,1151.958130 1.000000,1136.468628 
z"/>
<path fill="#56B1E4" opacity="1.000000" stroke="none" 
	d="
M1.000000,513.468628 
	C122.354225,513.000000 243.708450,513.000000 365.531342,513.000000 
	C366.000000,526.354248 366.000000,539.708435 366.000000,553.531372 
	C244.645767,554.000000 123.291542,554.000000 1.468657,554.000000 
	C1.000000,540.645752 1.000000,527.291565 1.000000,513.468628 
z"/>
<path fill="#E3F2FA" opacity="1.000000" stroke="none" 
	d="
M365.609375,67.685654 
	C366.000000,80.687561 366.000000,93.375122 366.000000,106.531342 
	C363.333649,109.369049 360.042725,108.810661 356.932556,108.814972 
	C325.611633,108.858383 294.290619,108.840302 262.969635,108.840431 
	C179.169357,108.840782 95.369064,108.847717 11.568791,108.815277 
	C8.280577,108.814003 4.874823,109.395020 1.390463,107.314201 
	C1.000000,94.312439 1.000000,81.624878 1.000000,68.468658 
	C3.666342,65.630966 6.957260,66.189339 10.067408,66.185028 
	C41.388226,66.141632 72.709122,66.159706 104.029999,66.159569 
	C187.830002,66.159210 271.630005,66.152290 355.430023,66.184731 
	C358.718506,66.185997 362.124512,65.604912 365.609375,67.685654 
z"/>
<path fill="#F1F8FD" opacity="1.000000" stroke="none" 
	d="
M366.000000,67.531342 
	C244.645767,67.999931 123.291542,67.999855 1.468657,67.999893 
	C1.000000,60.312424 1.000000,52.624847 1.000000,44.468636 
	C7.071590,40.566128 10.372480,34.762997 14.194284,28.882469 
	C17.222408,28.015377 19.900461,28.172718 22.559883,28.172447 
	C133.851089,28.161108 245.142288,28.159552 356.433502,28.184080 
	C359.397278,28.184732 362.463440,27.732822 365.611298,29.687370 
	C366.000000,42.354229 366.000000,54.708454 366.000000,67.531342 
z"/>
<path fill="#C8E6F6" opacity="1.000000" stroke="none" 
	d="
M349.223633,199.703400 
	C346.688293,201.414612 344.136078,200.986694 341.665649,200.986969 
	C228.422867,201.000031 115.180092,200.998459 1.468657,200.999298 
	C1.000000,188.645767 1.000000,176.291550 1.000000,163.468658 
	C3.666353,160.630966 6.957270,161.189392 10.067415,161.185104 
	C41.388237,161.141846 72.709137,161.159821 104.030014,161.159683 
	C187.830032,161.159332 271.630035,161.152451 355.430054,161.184814 
	C358.718536,161.186096 362.124542,160.604919 365.609406,162.685654 
	C366.000000,166.361282 366.000000,169.722580 366.000000,173.541931 
	C365.151978,174.831665 364.093964,175.225555 362.981079,175.587906 
	C352.599121,178.968231 349.007416,184.194290 349.562714,195.016647 
	C349.637909,196.482529 350.043091,197.958984 349.223633,199.703400 
z"/>
<path fill="#D6ECF8" opacity="1.000000" stroke="none" 
	d="
M1.000000,107.468658 
	C122.354225,107.000130 243.708450,107.000267 365.531342,107.000198 
	C366.000000,116.354225 366.000000,125.708458 366.000000,135.531342 
	C363.335541,138.366455 360.047668,137.805740 356.941254,137.808655 
	C315.003204,137.848099 273.065155,137.833572 231.127075,137.833923 
	C166.888596,137.834457 102.650124,137.837585 38.411652,137.824310 
	C35.256672,137.823669 32.081474,138.052917 28.540825,137.171219 
	C26.115507,136.198883 25.893415,134.187027 24.961590,132.241028 
	C24.669590,131.772491 24.547874,131.596725 24.201990,131.211380 
	C23.367384,130.459381 22.644228,130.322617 21.589287,130.482635 
	C21.158278,130.642761 20.995987,130.733063 20.611691,130.996140 
	C20.262136,131.316376 20.134584,131.463837 19.712727,132.167679 
	C19.069866,133.872803 18.706034,135.013504 17.445713,136.097626 
	C12.002509,138.190201 6.861909,138.319885 1.348009,136.273285 
	C1.000000,126.645775 1.000000,117.291542 1.000000,107.468658 
z"/>
<path fill="#FBFDFE" opacity="1.000000" stroke="none" 
	d="
M366.000000,29.531342 
	C248.674194,29.997009 131.348404,29.994019 13.560122,29.983772 
	C10.684520,27.793119 11.915106,24.618536 10.827480,21.696182 
	C9.612338,16.032427 4.526629,14.144775 1.211031,10.275925 
	C1.000000,7.003259 -0.168137,2.849813 1.330160,1.336708 
	C2.813811,-0.161606 6.986962,1.000421 9.980443,1.000409 
	C127.186295,0.999927 244.392166,1.025122 361.597870,0.891791 
	C365.553619,0.887291 366.223572,2.000280 366.089813,5.591571 
	C365.798798,13.405552 366.000000,21.237864 366.000000,29.531342 
z"/>
<path fill="#D0E9F7" opacity="1.000000" stroke="none" 
	d="
M26.679201,134.556442 
	C28.795523,136.876816 31.288414,135.957718 33.502125,135.958679 
	C144.022293,136.006180 254.542496,136.000275 365.531342,136.000092 
	C366.000000,144.687561 366.000000,153.375137 366.000000,162.531342 
	C244.645767,162.999878 123.291542,162.999741 1.468657,162.999817 
	C1.000000,154.312439 1.000000,145.624863 1.000000,136.468658 
	C6.355595,135.631363 11.797064,136.862228 17.486507,135.078186 
	C18.044142,134.850632 18.195082,134.681595 18.622643,134.704773 
	C19.213001,135.215088 19.527590,135.532318 20.081146,136.051956 
	C20.670631,136.296524 20.987185,136.685974 21.359121,136.398972 
	C21.461502,136.319977 21.295689,136.367920 20.963055,136.433441 
	C20.313025,136.561447 21.225683,136.353455 20.289392,136.178955 
	C19.696095,135.691681 19.376938,135.374512 18.832720,134.778687 
	C18.470858,133.534973 18.489656,132.564987 18.797144,131.287613 
	C19.004101,130.980591 19.005066,131.003632 18.994011,131.006989 
	C19.218239,130.789383 19.448790,130.563599 19.841953,130.158081 
	C20.009302,129.983215 20.003597,130.005005 19.992352,130.004181 
	C21.331661,129.128937 22.822067,129.623749 24.637672,129.784805 
	C25.019236,130.002884 24.996334,130.003860 24.996555,129.992401 
	C25.848028,131.300430 25.640083,132.978546 26.679201,134.556442 
z"/>
<path fill="#FBFDFE" opacity="1.000000" stroke="none" 
	d="
M196.959381,1173.299927 
	C253.222229,1173.017334 309.142456,1173.008667 365.531342,1173.000000 
	C366.000000,1181.324463 365.899536,1189.650879 366.062469,1197.972168 
	C366.110077,1200.403442 365.607727,1201.101074 363.032257,1201.073120 
	C348.882324,1200.919922 334.729919,1201.000000 320.578339,1201.000000 
	C215.523788,1201.000000 110.469200,1200.972656 5.414822,1201.106812 
	C1.486154,1201.111816 0.643763,1200.044189 0.918949,1196.418213 
	C1.258146,1191.948608 1.000000,1187.433960 1.000000,1182.469360 
	C56.404480,1181.987671 111.808960,1181.975342 167.692291,1181.939697 
	C174.093735,1180.080688 174.468918,1180.256836 176.037872,1186.302734 
	C176.374893,1187.601318 176.891113,1188.442261 178.287903,1188.475342 
	C181.114792,1188.542358 183.943619,1188.557861 186.769287,1188.471558 
	C188.283691,1188.425293 189.588272,1187.534912 189.399139,1186.056763 
	C188.724258,1180.781494 192.006866,1180.851807 195.604034,1181.128052 
	C195.867477,1181.148315 196.127991,1180.806763 196.423248,1180.114136 
	C196.569443,1177.649536 196.397141,1175.607788 196.959381,1173.299927 
z"/>
<path fill="#ACD9F2" opacity="1.000000" stroke="none" 
	d="
M347.290741,380.160156 
	C340.308838,366.289185 344.231201,354.533936 357.672424,349.047516 
	C360.367218,350.066345 362.808075,350.618622 365.688660,350.779083 
	C366.000000,362.354218 366.000000,373.708466 366.000000,385.531342 
	C358.802094,387.540222 352.310089,386.792999 347.290741,380.160156 
z"/>
<path fill="#BADFF4" opacity="1.000000" stroke="none" 
	d="
M12.703669,292.846558 
	C19.479927,305.014923 18.469877,312.594696 9.634410,321.007751 
	C7.295722,323.234650 4.441592,323.735229 1.336898,324.855927 
	C1.000000,312.312439 1.000000,299.624878 1.000000,286.468658 
	C5.767831,286.585785 9.238753,289.380310 12.703669,292.846558 
z"/>
<path fill="#ACD9F2" opacity="1.000000" stroke="none" 
	d="
M349.235779,200.180237 
	C344.099609,184.087112 354.830536,173.890167 365.588867,174.001572 
	C366.000000,185.687561 366.000000,197.375122 366.000000,209.531342 
	C362.677429,210.206299 359.468231,209.997681 356.310120,207.158218 
	C360.295013,206.812927 360.644104,202.448212 364.378937,201.532288 
	C362.483887,200.430206 360.905060,199.434540 359.256744,198.571625 
	C356.790100,197.280273 354.145630,195.622498 354.398193,200.745255 
	C354.449799,201.791672 353.845062,203.350967 352.539429,203.336349 
	C350.872070,203.317688 350.408539,201.485977 349.235779,200.180237 
z"/>
<path fill="#8FCCED" opacity="1.000000" stroke="none" 
	d="
M366.000000,728.531433 
	C363.868378,729.128235 361.778168,728.973877 359.409119,728.028259 
	C357.467590,726.312134 360.022095,725.136047 359.436676,723.308960 
	C357.778442,723.474854 356.995453,725.106384 355.328369,725.843323 
	C350.348419,722.289307 351.254547,717.234558 352.791473,712.918030 
	C354.727356,707.481140 359.962463,706.811829 365.570984,707.012573 
	C366.000000,714.020935 366.000000,721.041931 366.000000,728.531433 
z"/>
<path fill="#C8E6F6" opacity="1.000000" stroke="none" 
	d="
M11.673742,19.892475 
	C13.150261,22.943892 13.050552,26.031305 13.067084,29.542751 
	C12.627669,37.340515 8.335251,41.584305 1.355794,43.962570 
	C1.000000,38.311958 1.000000,32.623920 1.000000,26.467939 
	C1.554843,25.502518 1.483340,24.739023 2.046775,23.903503 
	C6.461835,25.042242 7.812632,19.873354 11.673742,19.892475 
z"/>
<path fill="#D6ECF8" opacity="1.000000" stroke="none" 
	d="
M11.870508,19.685837 
	C10.345938,21.783310 8.005818,22.487112 6.798163,25.236931 
	C5.061485,29.191328 4.355273,23.646648 2.096036,23.974390 
	C1.529759,23.831753 1.320655,23.380352 1.160328,23.190176 
	C1.000000,18.975456 1.000000,14.950912 1.000000,10.463183 
	C5.645880,11.903023 9.420541,14.804232 11.870508,19.685837 
z"/>
<path fill="#D0E9F7" opacity="1.000000" stroke="none" 
	d="
M366.000000,350.750000 
	C363.426086,350.908112 360.735962,351.434235 358.261047,349.303314 
	C360.416229,349.335541 362.802155,349.652802 365.594055,349.985016 
	C366.000000,350.000000 366.000000,350.500000 366.000000,350.750000 
z"/>
<path fill="#D6ECF8" opacity="1.000000" stroke="none" 
	d="
M1.999496,23.999466 
	C1.823248,24.548445 1.647511,25.097956 1.235888,25.823734 
	C1.000000,25.555555 1.000000,25.111111 1.000000,24.333332 
	C1.166996,23.882038 1.333993,23.764078 1.751147,23.823536 
	C2.001304,24.000952 2.000008,24.000000 1.999496,23.999466 
z"/>
<path fill="#C8E6F6" opacity="1.000000" stroke="none" 
	d="
M1.889995,23.783606 
	C1.834417,24.003628 1.667531,24.006302 1.250322,24.004488 
	C1.000000,24.000000 1.000000,23.500000 1.000000,23.250000 
	C1.323077,23.101418 1.582639,23.290171 1.889995,23.783606 
z"/>
<path fill="#E3F2FA" opacity="1.000000" stroke="none" 
	d="
M16.771994,586.759155 
	C15.352880,591.519836 11.836332,591.177673 8.580100,589.549133 
	C5.300309,587.908752 4.050604,584.856140 5.515408,581.177185 
	C7.074045,577.262512 10.088331,576.034607 13.892591,577.325256 
	C17.339556,578.494751 19.427076,580.852783 18.329639,584.870422 
	C18.157768,585.499634 17.867306,586.096497 17.309811,586.867676 
	C15.780076,585.966248 15.686567,584.373291 15.070910,583.028992 
	C14.283103,581.308777 12.943591,580.466492 11.056072,580.870544 
	C9.573668,581.187866 8.705109,582.202942 8.914414,583.757812 
	C9.193428,585.830505 10.759197,586.327209 12.560423,586.388794 
	C13.875355,586.433777 15.210153,585.969116 16.771994,586.759155 
z"/>
<path fill="#F1F8FD" opacity="1.000000" stroke="none" 
	d="
M351.396729,604.513306 
	C347.872559,610.381348 348.104675,610.099731 345.275940,607.767883 
	C342.979034,605.874512 342.762695,605.400085 344.980469,602.850891 
	C347.831299,599.574158 348.463257,602.018188 349.933807,603.510925 
	C350.262085,603.844177 350.786407,603.984253 351.396729,604.513306 
z"/>
<path fill="#F1F8FD" opacity="1.000000" stroke="none" 
	d="
M335.251740,797.237000 
	C336.520325,792.222229 340.033813,793.564026 342.927521,794.899231 
	C345.998138,796.316040 346.937775,801.252869 345.201660,804.098511 
	C343.338531,807.152283 338.580933,808.160339 335.519775,806.149841 
	C332.347687,804.066589 331.855103,800.342834 334.657867,796.949768 
	C336.098053,798.035767 335.678040,799.473022 335.978149,800.726135 
	C336.436615,802.640259 337.682465,803.513306 339.607635,803.265747 
	C341.072266,803.077454 342.090729,802.220642 342.124969,800.677124 
	C342.171112,798.593262 340.821716,797.796143 338.945129,797.678955 
	C337.803406,797.607605 336.635010,797.959839 335.251740,797.237000 
z"/>
<path fill="#D6ECF8" opacity="1.000000" stroke="none" 
	d="
M342.654938,814.080139 
	C341.732483,813.637207 341.956055,812.875732 342.165649,812.141235 
	C342.184967,812.073608 342.580353,812.113220 342.801086,812.102966 
	C342.824982,812.701477 342.848846,813.300049 342.654938,814.080139 
z"/>
<path fill="#D6ECF8" opacity="1.000000" stroke="none" 
	d="
M337.899048,815.664551 
	C338.354767,814.800354 339.129486,814.991577 339.861450,815.200317 
	C340.326447,815.332886 340.333496,815.688293 339.901367,815.767456 
	C339.311737,815.875549 338.696625,815.844727 337.899048,815.664551 
z"/>
<path fill="#FBFDFE" opacity="1.000000" stroke="none" 
	d="
M167.062927,670.867920 
	C167.684814,673.297485 167.738754,675.507935 170.892029,675.455200 
	C172.843246,675.422546 172.980438,677.128357 173.026733,678.733032 
	C173.083496,680.700378 172.055435,681.439148 170.300690,681.412231 
	C168.089645,681.378296 166.824738,682.187866 167.003433,684.610962 
	C167.124237,686.249390 166.336319,687.004700 164.644989,687.024353 
	C162.822983,687.045593 161.732300,686.379578 161.825577,684.463684 
	C161.932526,682.266968 161.278809,680.926453 158.772751,681.135742 
	C156.973907,681.285950 155.978088,680.540955 156.018112,678.565979 
	C156.052032,676.892090 156.424698,675.580322 158.343323,675.371582 
	C159.879837,675.204468 161.308609,675.083130 161.471420,672.997498 
	C161.778305,669.066162 164.310196,669.716187 167.062927,670.867920 
z"/>
<path fill="#FBFDFE" opacity="1.000000" stroke="none" 
	d="
M29.939732,243.433792 
	C29.501064,243.843582 29.075317,243.907242 28.327854,244.004181 
	C27.589624,243.342590 27.340881,242.316742 26.729286,242.006744 
	C22.850334,240.040588 24.507748,238.588821 26.812496,236.588486 
	C27.935545,235.613770 28.360241,234.469147 29.763807,236.017456 
	C31.535166,237.971481 33.736134,239.844696 30.148813,242.140656 
	C29.959114,242.262085 30.012459,242.763275 29.939732,243.433792 
z"/>
<path fill="#FBFDFE" opacity="1.000000" stroke="none" 
	d="
M246.630371,222.571594 
	C246.702042,224.875244 253.201813,224.750107 248.879486,228.241776 
	C247.909241,229.025574 247.972015,231.394562 246.269257,230.657074 
	C244.757538,230.002335 242.835403,228.602005 242.533890,227.217361 
	C241.993912,224.737518 244.971756,224.029434 246.630371,222.571594 
z"/>
<path fill="#81C5EB" opacity="1.000000" stroke="none" 
	d="
M342.418823,237.464661 
	C339.744995,236.695648 339.502991,235.110901 341.941040,233.339020 
	C343.168610,234.531464 343.189362,235.701447 342.418823,237.464661 
z"/>
<path fill="#81C5EB" opacity="1.000000" stroke="none" 
	d="
M346.370850,237.546936 
	C345.650330,239.505539 344.057648,239.118088 342.215118,238.293365 
	C341.985504,238.022827 341.995819,238.006134 341.998535,238.002457 
	C343.075012,237.008102 344.318420,236.708847 346.370850,237.546936 
z"/>
<path fill="#81C5EB" opacity="1.000000" stroke="none" 
	d="
M346.559906,233.608917 
	C348.481537,234.346497 348.127808,235.936676 347.286072,237.780426 
	C347.014252,238.009033 347.001160,238.000595 347.002411,238.002136 
	C346.005371,236.922424 345.704010,235.671570 346.559906,233.608917 
z"/>
<path fill="#81C5EB" opacity="1.000000" stroke="none" 
	d="
M343.552704,232.337875 
	C343.691772,230.884628 344.619110,230.839874 345.605804,231.964218 
	C345.093933,232.661621 344.627838,232.734543 343.552704,232.337875 
z"/>
<path fill="#81C5EB" opacity="1.000000" stroke="none" 
	d="
M341.975708,232.971222 
	C342.032532,232.614594 342.212555,232.347595 342.732605,232.062042 
	C342.960449,231.967789 342.986969,231.988480 342.997650,231.999725 
	C343.167755,232.470291 343.068390,232.851654 342.339111,233.075195 
	C342.010590,233.008133 341.986725,232.985168 341.975708,232.971222 
z"/>
<path fill="#81C5EB" opacity="1.000000" stroke="none" 
	d="
M346.029480,231.975311 
	C346.382324,232.040405 346.649750,232.221466 346.937866,232.735504 
	C347.028900,232.964600 347.010712,232.988007 347.001709,232.996857 
	C346.534637,233.169800 346.153656,233.072067 345.925232,232.343597 
	C345.989014,232.014465 346.014465,231.987411 346.029480,231.975311 
z"/>
<path fill="#ACD9F2" opacity="1.000000" stroke="none" 
	d="
M354.453552,205.529037 
	C354.424225,205.478455 354.482880,205.579620 354.453552,205.529037 
z"/>
<path fill="#8FCCED" opacity="1.000000" stroke="none" 
	d="
M181.915070,469.444092 
	C182.211609,460.484467 184.361572,458.041626 191.622894,457.989899 
	C199.421738,457.934357 202.569305,460.760498 203.010040,468.608276 
	C202.505539,475.979279 199.257690,478.989532 192.230286,479.014526 
	C185.676453,479.037811 182.479080,476.187775 181.915070,469.444092 
z"/>
<path fill="#FBFDFE" opacity="1.000000" stroke="none" 
	d="
M113.140251,480.057373 
	C116.005348,480.236389 117.499245,482.623260 118.453423,483.986969 
	C120.395073,486.761932 115.182693,486.703400 114.880836,489.449432 
	C114.786453,490.308014 112.516655,490.416992 111.950020,488.595123 
	C111.690338,487.760193 111.337288,487.209991 110.504036,486.761230 
	C107.727432,485.266022 107.430550,483.959961 110.815559,482.722687 
	C111.666679,482.411652 112.122734,481.019745 113.140251,480.057373 
z"/>
<path fill="#F1F8FD" opacity="1.000000" stroke="none" 
	d="
M246.696289,981.161743 
	C246.438049,985.018555 248.518768,987.020569 253.050049,987.436340 
	C249.993576,989.845398 248.147232,988.353882 246.782242,986.916016 
	C245.322067,985.377869 244.091644,983.343567 246.696289,981.161743 
z"/>
<path fill="#F1F8FD" opacity="1.000000" stroke="none" 
	d="
M248.372559,980.021790 
	C253.055786,978.107300 255.020233,979.610474 254.491531,986.103149 
	C253.588394,982.268677 252.132065,980.048157 248.372559,980.021790 
z"/>
<path fill="#F1F8FD" opacity="1.000000" stroke="none" 
	d="
M248.010376,980.013062 
	C247.943283,980.364319 247.760635,980.631775 247.241333,980.918152 
	C247.011124,981.009766 247.000519,981.000427 246.996445,980.995361 
	C247.079529,980.660278 247.261337,980.395325 247.758545,980.089783 
	C247.979309,979.984192 248.001266,980.001892 248.010376,980.013062 
z"/>
<path fill="#47ABE1" opacity="1.000000" stroke="none" 
	d="
M48.945160,904.815491 
	C46.853878,901.521240 49.631283,900.204895 51.317516,899.375977 
	C53.576248,898.265686 54.913242,900.774902 55.648304,902.339844 
	C56.723957,904.629822 54.208714,905.885803 52.914707,906.983704 
	C50.920174,908.675781 50.419170,905.858032 48.945160,904.815491 
z"/>
<path fill="#F1F8FD" opacity="1.000000" stroke="none" 
	d="
M247.435013,336.241760 
	C248.767456,339.928375 245.460388,341.225616 243.570847,341.587006 
	C242.230560,341.843384 238.874222,340.280914 239.188232,336.681946 
	C241.837234,335.582245 244.398956,332.928009 247.435013,336.241760 
z"/>
<path fill="#F1F8FD" opacity="1.000000" stroke="none" 
	d="
M354.692993,439.441711 
	C351.592621,445.029358 351.373047,444.872681 348.481018,442.481201 
	C345.906738,440.352417 346.868805,439.694031 348.524200,437.646576 
	C350.713562,434.938690 351.525513,436.267731 352.857391,438.053558 
	C353.224945,438.546356 353.955048,438.768799 354.692993,439.441711 
z"/>
<path fill="#7FC4EA" opacity="1.000000" stroke="none" 
	d="
M355.155212,726.264771 
	C355.066345,724.937256 355.392609,723.589111 356.283142,723.550110 
	C358.130188,723.469360 358.318207,719.292053 360.699554,721.616699 
	C363.211639,724.068848 361.099518,725.777588 359.084045,727.626526 
	C357.584503,728.041870 356.208313,727.950439 355.155212,726.264771 
z"/>
<path fill="#47ABE1" opacity="1.000000" stroke="none" 
	d="
M324.948730,1111.976929 
	C324.620636,1108.614868 326.125702,1107.909790 328.792114,1107.882935 
	C331.612701,1107.854614 332.821259,1109.021240 332.633209,1111.688110 
	C332.449432,1114.294678 333.583771,1115.335449 336.124298,1115.077393 
	C338.746277,1114.811279 339.702820,1116.227295 339.625549,1118.647339 
	C339.551849,1120.955811 339.253998,1123.179443 336.162079,1122.884155 
	C333.157715,1122.597168 332.516113,1124.157959 332.530975,1126.720703 
	C332.545898,1129.296997 330.893127,1129.987549 328.542419,1129.936035 
	C326.097015,1129.882324 324.680145,1128.958740 324.990021,1126.382324 
	C325.354523,1123.351929 323.802246,1122.696045 321.196106,1122.877197 
	C318.049164,1123.096191 317.984802,1120.936279 317.916901,1118.591675 
	C317.843445,1116.055786 318.767792,1114.885864 321.367737,1115.055054 
	C323.232239,1115.176514 325.202606,1115.256714 324.948730,1111.976929 
z"/>
<path fill="#62B7E6" opacity="1.000000" stroke="none" 
	d="
M9.975809,1112.102905 
	C11.573385,1109.018921 13.596287,1109.483887 15.630242,1111.932617 
	C14.231934,1113.294922 12.835525,1113.250977 11.079868,1112.904907 
	C10.545302,1112.667725 10.347325,1112.539551 9.975809,1112.102905 
z"/>
<path fill="#62B7E6" opacity="1.000000" stroke="none" 
	d="
M15.549585,1117.616577 
	C14.354851,1120.355225 12.344573,1120.666382 9.887690,1118.607910 
	C9.826840,1118.078613 9.931201,1117.856201 10.341135,1117.425537 
	C12.088810,1116.651855 13.540953,1116.676392 15.549585,1117.616577 
z"/>
<path fill="#62B7E6" opacity="1.000000" stroke="none" 
	d="
M16.006315,1111.992798 
	C18.292404,1113.667847 18.299147,1115.603638 16.384296,1117.910645 
	C16.098549,1118.089966 15.817427,1117.814209 15.677456,1117.675781 
	C14.486686,1115.915283 14.509503,1114.284790 15.765382,1112.307373 
	C16.032072,1111.968018 16.015282,1111.984863 16.006315,1111.992798 
z"/>
<path fill="#62B7E6" opacity="1.000000" stroke="none" 
	d="
M9.825500,1118.189941 
	C7.204602,1116.450928 7.342452,1114.359131 9.480918,1111.954590 
	C9.802269,1111.794556 9.962043,1111.959839 10.042040,1112.042358 
	C11.165639,1113.782349 10.827295,1115.543701 10.323864,1117.580933 
	C10.136772,1117.858521 9.928521,1118.078857 9.825500,1118.189941 
z"/>
<path fill="#81C5EB" opacity="1.000000" stroke="none" 
	d="
M196.749252,1179.738281 
	C196.861160,1180.470093 196.747986,1181.341675 196.583084,1181.351562 
	C192.344345,1181.605835 188.896622,1182.467651 189.647202,1188.047119 
	C189.775803,1189.003052 188.108337,1189.013306 187.132996,1189.019531 
	C183.976486,1189.039795 180.819733,1189.015503 177.663086,1189.022949 
	C176.140137,1189.026489 174.860535,1188.525269 175.114594,1186.792358 
	C175.881104,1181.564209 172.525711,1181.712158 168.601532,1181.929443 
	C168.122849,1178.757080 168.334396,1175.566895 167.963531,1172.445801 
	C167.446274,1168.092896 168.890350,1166.185059 173.388718,1166.941772 
	C174.492981,1167.127686 175.655121,1166.969482 177.110245,1166.969482 
	C176.677094,1167.550171 176.545044,1167.901001 176.388290,1167.912231 
	C168.572159,1168.480957 168.693344,1168.474731 168.902893,1176.456543 
	C168.976059,1179.242920 169.833191,1180.492920 172.658997,1180.185303 
	C175.682861,1179.855835 177.048386,1181.298584 176.713501,1184.262939 
	C176.277618,1188.121460 178.801697,1188.419678 181.419800,1187.913086 
	C184.143936,1187.386108 188.885315,1190.330078 188.866882,1184.393311 
	C188.850296,1179.054443 192.532333,1180.458374 195.741089,1180.170410 
	C196.167801,1179.825439 196.333939,1179.651001 196.749252,1179.738281 
z"/>
<path fill="#9DD2EF" opacity="1.000000" stroke="none" 
	d="
M181.865295,1166.542969 
	C178.875351,1165.943237 176.963242,1163.713379 175.616867,1161.068115 
	C174.204590,1158.293579 175.469910,1155.360596 178.129974,1155.526001 
	C181.389648,1155.728760 184.801620,1154.321289 188.140686,1156.329712 
	C188.372742,1156.865356 188.426178,1157.093628 188.133484,1157.259521 
	C185.101624,1156.395874 182.612274,1158.280884 179.637436,1157.344727 
	C177.146774,1156.560913 176.310440,1159.014893 177.766113,1161.181885 
	C178.945831,1162.938232 180.540176,1164.416138 181.865295,1166.542969 
z"/>
<path fill="#9DD2EF" opacity="1.000000" stroke="none" 
	d="
M188.189301,1156.779907 
	C191.024597,1160.335327 190.527069,1161.845215 185.447708,1164.501831 
	C185.713516,1161.924194 189.059875,1160.671143 187.862213,1157.557373 
	C187.787369,1157.197144 188.059296,1156.922729 188.189301,1156.779907 
z"/>
<path fill="#72BFE8" opacity="1.000000" stroke="none" 
	d="
M182.035583,1166.795654 
	C186.871353,1166.885376 191.671158,1167.101807 196.725006,1167.653442 
	C196.812790,1168.180664 196.646515,1168.372803 196.178833,1168.331665 
	C191.392334,1167.950928 186.907242,1167.803345 182.101059,1167.362061 
	C181.779968,1167.068359 181.999603,1166.922485 182.035583,1166.795654 
z"/>
<path fill="#9DD2EF" opacity="1.000000" stroke="none" 
	d="
M195.917099,1168.549561 
	C196.060867,1168.078369 196.244324,1168.058350 196.703430,1168.013428 
	C197.032043,1169.391479 197.085037,1170.794312 197.220001,1172.611572 
	C197.223557,1175.060181 197.145111,1177.094238 197.032562,1179.564209 
	C196.998459,1180.000000 196.500046,1179.995728 196.250854,1179.997803 
	C195.986694,1176.333618 195.971741,1172.667114 195.917099,1168.549561 
z"/>
<path fill="#FBFDFE" opacity="1.000000" stroke="none" 
	d="
M178.660004,81.891953 
	C179.291672,83.848495 179.635056,85.467735 179.972595,87.448730 
	C180.974960,89.109253 182.385071,88.350014 183.607452,88.489853 
	C185.823547,88.743370 188.508469,87.502197 188.621094,91.751869 
	C188.734756,96.040535 186.283188,95.588570 183.630310,95.499252 
	C183.304123,95.488266 182.976669,95.524246 182.301270,95.777969 
	C181.952484,96.010300 182.011490,96.011581 182.009888,95.982117 
	C180.913422,97.759811 181.827652,99.785454 181.130524,102.001007 
	C175.326096,103.801331 174.795990,103.485725 172.916382,97.393028 
	C172.017044,96.283775 171.296432,95.478767 170.230515,95.547707 
	C167.396942,95.730995 165.842819,94.831245 166.053040,91.647568 
	C166.282181,88.177254 168.605988,88.395378 170.985092,88.505386 
	C171.647552,88.536018 172.306183,88.484688 173.219086,87.969101 
	C174.862564,85.400658 172.351913,80.048538 178.660004,81.891953 
z"/>
<path fill="#8DCBED" opacity="1.000000" stroke="none" 
	d="
M179.289001,82.155579 
	C174.079010,81.151619 175.231110,84.888535 174.636993,87.709015 
	C174.192642,88.153915 173.939529,88.271912 173.324890,88.178360 
	C173.017868,86.649223 173.127228,85.331032 173.112656,84.014206 
	C173.095596,82.471603 173.054764,80.810638 174.937622,80.452530 
	C176.985504,80.063034 179.338394,79.464058 181.051636,80.861198 
	C181.874542,81.532280 180.307480,81.832680 179.289001,82.155579 
z"/>
<path fill="#9DD2EF" opacity="1.000000" stroke="none" 
	d="
M174.008026,95.777451 
	C175.447342,98.730591 174.159958,103.619339 180.366547,101.893250 
	C180.994537,102.092506 181.213394,102.353691 181.225159,103.082176 
	C180.489197,103.735954 179.960327,103.922432 179.147354,104.139137 
	C172.744614,104.760017 172.744614,104.760017 172.564056,96.410461 
	C173.033981,95.852341 173.311386,95.715591 174.008026,95.777451 
z"/>
<path fill="#56B1E4" opacity="1.000000" stroke="none" 
	d="
M182.405060,95.990929 
	C182.890427,94.249458 184.572006,95.103294 185.904358,94.998596 
	C188.107849,94.825455 187.950974,93.363777 188.014023,91.867386 
	C188.086853,90.138908 187.621552,89.151520 185.594650,89.060310 
	C183.574539,88.969406 181.398529,89.835144 179.748596,88.085678 
	C180.955963,87.862083 181.948563,87.878044 182.933685,87.972061 
	C185.678741,88.234032 189.155716,86.466423 189.159073,92.047150 
	C189.162537,97.818298 185.433365,95.499191 182.405060,95.990929 
z"/>
<path fill="#56B1E4" opacity="1.000000" stroke="none" 
	d="
M174.123474,95.663452 
	C174.171844,95.988274 173.916443,96.000481 173.280304,96.059059 
	C172.523743,96.404907 172.094482,96.521645 171.321640,96.300140 
	C169.483490,95.938515 167.942566,95.756546 166.165573,95.268150 
	C165.193298,93.649849 165.604919,92.232529 165.703644,90.466843 
	C166.895203,86.235199 170.018188,88.667305 172.537506,87.982697 
	C173.209122,87.987587 173.454910,88.008354 174.073227,88.032516 
	C173.499496,89.263496 172.104263,89.083252 170.839111,89.063232 
	C168.673767,89.028992 167.067902,89.183884 167.056946,92.110107 
	C167.045425,95.181587 168.884216,95.007790 170.924469,95.013733 
	C171.889847,95.016541 172.854630,95.231819 174.123474,95.663452 
z"/>
<path fill="#FBFDFE" opacity="1.000000" stroke="none" 
	d="
M171.071991,96.515106 
	C171.441452,96.092422 171.858475,96.064369 172.587555,96.070877 
	C173.566757,99.440353 171.159012,104.763779 178.457550,104.120995 
	C172.993866,105.880165 172.577911,105.623680 171.956680,100.245750 
	C171.826248,99.116577 171.406174,98.020859 171.071991,96.515106 
z"/>
<path fill="#56B1E4" opacity="1.000000" stroke="none" 
	d="
M181.353165,103.253876 
	C180.986389,103.261955 180.954712,102.974434 180.849350,102.259125 
	C180.936417,99.967575 181.097153,98.103821 181.633087,96.096359 
	C181.951996,98.290154 182.480072,100.654358 181.353165,103.253876 
z"/>
<path fill="#FBFDFE" opacity="1.000000" stroke="none" 
	d="
M165.619507,90.318344 
	C165.908432,91.433594 165.962128,92.791328 165.972656,94.555397 
	C164.565140,93.641281 164.878555,92.112968 165.619507,90.318344 
z"/>
<path fill="#47ABE1" opacity="1.000000" stroke="none" 
	d="
M300.870605,119.117996 
	C298.009735,117.255707 299.091400,116.457031 300.759003,114.513496 
	C303.637878,111.158249 304.952850,114.324677 306.718079,115.262306 
	C308.302795,116.104042 308.138611,117.584084 306.580231,118.283432 
	C304.906433,119.034576 303.864624,123.801079 300.870605,119.117996 
z"/>
<path fill="#8DCBED" opacity="1.000000" stroke="none" 
	d="
M26.896860,134.468903 
	C24.185671,134.448807 25.407467,132.193542 24.968502,130.367462 
	C26.438044,130.995209 26.747496,132.527512 26.896860,134.468903 
z"/>
<path fill="#8DCBED" opacity="1.000000" stroke="none" 
	d="
M24.802677,129.711304 
	C23.619774,130.013229 22.220310,130.023560 20.400978,130.018631 
	C21.332285,128.358444 22.955128,128.856934 24.802677,129.711304 
z"/>
<path fill="#8DCBED" opacity="1.000000" stroke="none" 
	d="
M18.995373,134.611694 
	C18.775265,135.067169 18.598438,135.077301 18.157406,135.053558 
	C18.062067,133.810852 18.230932,132.602036 18.701950,131.186905 
	C19.015619,132.042511 19.027136,133.104431 18.995373,134.611694 
z"/>
<path fill="#8DCBED" opacity="1.000000" stroke="none" 
	d="
M19.758337,130.060150 
	C19.826405,130.263321 19.643505,130.543442 19.221781,130.916931 
	C19.157759,130.719238 19.332563,130.428162 19.758337,130.060150 
z"/>
<path fill="#8DCBED" opacity="1.000000" stroke="none" 
	d="
M20.209373,136.276367 
	C21.299198,135.958694 22.564705,135.958694 24.262518,135.958694 
	C22.809675,137.587830 21.577826,136.904114 20.209373,136.276367 
z"/>
<path fill="#8DCBED" opacity="1.000000" stroke="none" 
	d="
M19.969738,136.024750 
	C19.604053,135.979156 19.334469,135.801987 19.045050,135.285309 
	C18.952093,135.057037 18.995132,135.008011 19.019920,134.985443 
	C19.370338,135.056686 19.631437,135.241608 19.930847,135.738159 
	C20.033691,135.958694 19.992720,136.004395 19.969738,136.024750 
z"/>
<path fill="#47ABE1" opacity="1.000000" stroke="none" 
	d="
M17.024633,586.984375 
	C15.709614,586.449768 14.993234,587.779297 13.906921,588.010864 
	C10.600692,588.715393 7.842155,588.100281 7.018347,584.410217 
	C6.381393,581.557068 7.751365,579.516663 10.725005,579.092041 
	C14.246198,578.589233 16.427965,580.197754 16.882839,583.806030 
	C16.983030,584.600769 16.748724,585.437683 16.828197,586.641113 
	C16.987946,587.027039 17.009476,586.996094 17.024633,586.984375 
z"/>
<path fill="#81C5EB" opacity="1.000000" stroke="none" 
	d="
M334.991425,797.008911 
	C335.764648,796.774536 336.547699,796.535522 337.327850,796.287415 
	C339.750427,795.516968 342.007172,795.648376 343.476624,797.987122 
	C344.639801,799.838501 344.511353,801.810791 342.998260,803.485535 
	C341.192291,805.484314 338.757690,805.705383 336.626099,804.592896 
	C334.393890,803.427856 333.515961,801.247131 334.658569,798.670349 
	C334.792053,798.369385 334.872559,798.044861 334.997437,797.357056 
	C335.017273,796.982849 334.999939,797.000000 334.991425,797.008911 
z"/>
<path fill="#ACD9F2" opacity="1.000000" stroke="none" 
	d="
M345.616455,232.013794 
	C346.089722,232.337402 346.278442,232.596146 346.773926,232.898193 
	C346.992432,234.393845 346.992157,235.782013 346.997772,237.586914 
	C345.614044,238.000717 344.224396,237.997772 342.418030,237.996796 
	C341.997253,236.612289 341.993256,235.225784 341.999939,233.423706 
	C342.328918,232.901642 342.589203,232.714447 342.899872,232.228760 
	C343.753510,232.011703 344.498718,232.012405 345.616455,232.013794 
z"/>
<path fill="#D6ECF8" opacity="1.000000" stroke="none" 
	d="
M10.536335,1117.916992 
	C9.391193,1116.186646 8.764986,1114.510986 10.050114,1112.451416 
	C11.806960,1112.099731 13.491884,1112.074585 15.604443,1112.008789 
	C15.958664,1113.587891 15.885252,1115.207764 15.674662,1117.182373 
	C14.045236,1118.120239 12.522499,1118.383179 10.536335,1117.916992 
z"/>
</svg>